<?xml version="1.0" encoding="UTF-8"?><svg id="Layer_1" xmlns="http://www.w3.org/2000/svg" width="237" height="48.5" viewBox="0 0 237 48.5"><defs><style>.cls-1{fill:#fff;stroke-width:0px;}</style></defs><path class="cls-1" d="m75.78,28.17v-8.5c0-2.69,1.34-4.03,4.03-4.03h6.41l1.61,1.25v1.87h-7.87c-.48,0-.72.24-.72.72v8.88c0,.48.24.72.72.72h7.87v1.87l-1.61,1.25h-6.41c-2.69,0-4.03-1.34-4.03-4.03Z"/><path class="cls-1" d="m90.76,28.17v-8.5c0-2.69,1.34-4.03,4.03-4.03h5.47c2.69,0,4.03,1.34,4.03,4.03v8.5c0,2.69-1.34,4.03-4.03,4.03h-5.47c-2.69,0-4.03-1.34-4.03-4.03Zm3.46.19c0,.48.24.72.72.72h5.18c.48,0,.72-.24.72-.72v-8.88c0-.48-.24-.72-.72-.72h-5.18c-.48,0-.72.24-.72.72v8.88Z"/><path class="cls-1" d="m107.99,32.21V15.65h8.06c2.69,0,4.03,1.34,4.03,4.03v3.22c0,2.69-1.34,4.03-4.03,4.03h-4.61v5.28h-3.46Zm3.46-8.4h4.46c.48,0,.72-.24.72-.72v-3.6c0-.48-.24-.72-.72-.72h-4.46v5.04Z"/><path class="cls-1" d="m123.3,32.21V15.65h11.33v3.12h-7.87v3.36h7.15v3.12h-7.15v3.84h7.87v3.12h-11.33Z"/><path class="cls-1" d="m137.79,32.21V15.65h3.74l6.58,10.87v-10.87h3.46v16.56h-3.74l-6.58-10.87v10.87h-3.46Z"/><path class="cls-1" d="m155.51,32.21V15.65h3.46v6.48h6.14v-6.48h3.46v16.56h-3.46v-6.96h-6.14v6.96h-3.46Z"/><path class="cls-1" d="m170.96,31.56l4.92-15.91h5.28l4.92,15.91-.43.65h-2.88l-1.01-3.36h-6.48l-1.01,3.36h-2.88l-.43-.65Zm5.26-5.83h4.61l-2.11-6.96h-.38l-2.11,6.96Z"/><path class="cls-1" d="m188.24,28.17v-8.5c0-2.69,1.34-4.03,4.03-4.03h6.94l1.61,1.25v1.87h-8.4c-.48,0-.72.24-.72.72v8.88c0,.48.24.72.72.72h5.42v-3.84h-3.17v-3.12h6.62v10.08h-9.02c-2.69,0-4.03-1.34-4.03-4.03Z"/><path class="cls-1" d="m204.75,32.21V15.65h11.33v3.12h-7.87v3.36h7.15v3.12h-7.15v3.84h7.87v3.12h-11.33Z"/><path class="cls-1" d="m219.25,32.21V15.65h3.74l6.58,10.87v-10.87h3.46v16.56h-3.74l-6.58-10.87v10.87h-3.46Z"/><path class="cls-1" d="m2.31,34.05V2.73h8.64v31.8c0,1.2.6,1.8,1.8,1.8h11.76c1.2,0,1.8-.6,1.8-1.8V2.73h8.64v31.32c0,6.72-3.36,10.08-10.08,10.08h-12.48c-6.72,0-10.08-3.36-10.08-10.08Z"/><path class="cls-1" d="m41.19,42.39l12.96-19.56-12.18-18.36.84-1.74h7.56l8.52,13.2,8.52-13.2h7.56l.84,1.74-12.18,18.36,12.96,19.56-.84,1.74h-7.56l-9.3-14.34-9.3,14.34h-7.56l-.84-1.74Z"/></svg>